<?xml version="1.0" encoding="utf-8"?>
<!-- Generator: Adobe Illustrator 18.1.0, SVG Export Plug-In . SVG Version: 6.00 Build 0)  -->
<svg version="1.1" id="logo" xmlns="http://www.w3.org/2000/svg" xmlns:xlink="http://www.w3.org/1999/xlink" x="0px" y="0px"
	 viewBox="0 0 236.3 47.4" enable-background="new 0 0 236.3 47.4" xml:space="preserve">
<g id="XMLID_354_">
	<path id="XMLID_388_" fill="#FFFFFF" d="M62.2,0c11.9,0,21.1,9.5,21.1,23.7c0,14.2-9.3,23.7-21.1,23.7C50.2,47.4,41,37.9,41,23.7
		C41,9.5,50.2,0,62.2,0z M62.2,42.3c9.1,0,16.4-7,16.4-18.7C78.5,12.1,71.3,5,62.2,5C53,5,45.8,12.1,45.8,23.7
		C45.8,35.3,53,42.3,62.2,42.3z"/>
	<path id="XMLID_386_" fill="#FFFFFF" d="M92.2,0.9h5.3v45.7h-5.3V0.9z"/>
	<path id="XMLID_384_" fill="#FFFFFF" d="M147.1,33.7c-3.1,8.6-10.4,13.7-19,13.7c-11.9,0-21-9.4-21-23.8c0-14.3,9-23.6,21-23.6
		c9.4,0,16,5.7,18.5,12.5l-4.6,1.4c-1.5-3.1-5.5-8.9-14-8.9c-9.4,0-16.1,7.2-16.1,18.7c0,11.5,7,18.7,16,18.7
		c6.6,0,12.1-3.8,14.7-10L147.1,33.7z"/>
	<path id="XMLID_382_" fill="#FFFFFF" d="M207.2,33.2c0.5,6.5,5.9,9.5,12.9,9.5c6.7,0,10.7-2.7,10.7-8.2c0-7.5-7.6-7.9-13.2-9.1
		c-6.2-1.4-14.2-3.7-14.2-12.9c0-8,5.9-12.5,15.5-12.5c8.5,0,14.7,3.5,16.7,11.3l-5.1,1.4c-1.2-5-5-8-11.7-8c-6.7,0-10,2.9-10,7.5
		c0,6.1,5.7,7.4,12.3,8.7c6.8,1.3,15.1,3.5,15.1,13.5c0,8.6-6,13-16.2,13c-7.7,0-16.5-2.5-17.9-12.8L207.2,33.2z"/>
	<polygon id="XMLID_381_" fill="#FFFFFF" points="19.4,33.4 5.7,0.2 0,0.2 19.4,47.2 38.8,0.2 33.1,0.2 	"/>
	<g id="XMLID_355_">
		<path id="XMLID_379_" fill="#FFFFFF" d="M193.1,0v5.4H157V0L193.1,0z"/>
		<path id="XMLID_377_" fill="#FFFFFF" d="M193.1,41.4v5.4H157v-5.4H193.1z"/>
		<path id="XMLID_375_" opacity="0.35" fill="#FFFFFF" d="M193.1,34.5v5.4H157v-5.4H193.1z"/>
		<path id="XMLID_373_" opacity="0.35" fill="#FFFFFF" d="M193.1,27.6V33H157v-5.4H193.1z"/>
		<path id="XMLID_371_" opacity="0.35" fill="#FFFFFF" d="M193.1,20.7v5.4H157v-5.4H193.1z"/>
		<path id="XMLID_369_" opacity="0.35" fill="#FFFFFF" d="M193.1,13.8v5.4H157v-5.4H193.1z"/>
		<path id="XMLID_367_" opacity="0.35" fill="#FFFFFF" d="M193.1,6.9v5.4H157V6.9H193.1z"/>
		<path id="XMLID_365_" fill="#FFFFFF" d="M167.3,34.5v5.4H157v-5.4H167.3z"/>
		<path id="XMLID_363_" fill="#FFFFFF" d="M163.6,27.6V33H157v-5.4H163.6z"/>
		<path id="XMLID_361_" fill="#FFFFFF" d="M180.7,20.7v5.4H157v-5.4H180.7z"/>
		<path id="XMLID_358_" fill="#FFFFFF" d="M168,13.8v5.4h-11v-5.4H168z"/>
		<path id="XMLID_356_" fill="#FFFFFF" d="M165.5,6.9v5.4H157V6.9H165.5z"/>
	</g>
</g>
</svg>
