<?xml version="1.0" encoding="utf-8"?>
<!-- Generator: Adobe Illustrator 18.1.0, SVG Export Plug-In . SVG Version: 6.00 Build 0)  -->
<svg version="1.1" id="logo" xmlns="http://www.w3.org/2000/svg" xmlns:xlink="http://www.w3.org/1999/xlink" x="0px" y="0px"
	 viewBox="0 0 202.9 54.8" enable-background="new 0 0 202.9 54.8" xml:space="preserve">
<g id="XMLID_1_">
	<g id="XMLID_667_">
		<path id="XMLID_700_" fill="#363944" d="M53.1,0c10.1,0,18,8.1,18,20.2c0,12.1-7.9,20.3-18,20.3c-10.2,0-18-8.1-18-20.3
			C35,8.1,42.9,0,53.1,0z M53.1,36.1c7.8,0,14-6,14-15.9c0-9.9-6.2-15.9-14-15.9c-7.8,0-14,6.1-14,15.9
			C39.1,30.1,45.2,36.1,53.1,36.1z"/>
		<path id="XMLID_698_" fill="#363944" d="M78.7,0.8h4.5v39h-4.5V0.8z"/>
		<path id="XMLID_696_" fill="#363944" d="M125.5,28.8c-2.7,7.3-8.9,11.7-16.2,11.7c-10.1,0-17.9-8-17.9-20.3
			C91.4,7.9,99.1,0,109.3,0c8,0,13.6,4.9,15.8,10.6l-3.9,1.2c-1.3-2.7-4.7-7.6-12-7.6c-8,0-13.7,6.1-13.7,15.9
			c0,9.8,6,15.9,13.6,15.9c5.7,0,10.3-3.3,12.5-8.5L125.5,28.8z"/>
		<path id="XMLID_694_" fill="#363944" d="M176.8,28.3c0.4,5.6,5.1,8.1,11,8.1c5.7,0,9.1-2.3,9.1-7c0-6.4-6.5-6.7-11.3-7.8
			c-5.3-1.2-12.1-3.1-12.1-11c0-6.8,5-10.6,13.2-10.6c7.2,0,12.6,3,14.2,9.7l-4.3,1.2c-1.1-4.3-4.2-6.8-10-6.8
			c-5.7,0-8.5,2.4-8.5,6.4c0,5.2,4.9,6.3,10.5,7.4c5.8,1.1,12.9,2.9,12.9,11.5c0,7.3-5.1,11.1-13.8,11.1c-6.6,0-14.1-2.2-15.3-11
			L176.8,28.3z"/>
		<polygon id="XMLID_693_" fill="#363944" points="16.6,28.5 4.9,0.2 0,0.2 16.6,40.3 33.1,0.2 28.3,0.2 		"/>
		<g id="XMLID_668_">
			<path id="XMLID_691_" fill="#363944" d="M164.8,0v4.6h-30.8V0L164.8,0z"/>
			<path id="XMLID_689_" fill="#363944" d="M164.8,35.3V40h-30.8v-4.6H164.8z"/>
			<path id="XMLID_687_" opacity="0.15" fill="#363944" d="M164.8,29.5v4.6h-30.8v-4.6H164.8z"/>
			<path id="XMLID_685_" opacity="0.15" fill="#363944" d="M164.8,23.6v4.6h-30.8v-4.6H164.8z"/>
			<path id="XMLID_683_" opacity="0.15" fill="#363944" d="M164.8,17.7v4.6h-30.8v-4.6H164.8z"/>
			<path id="XMLID_681_" opacity="0.15" fill="#363944" d="M164.8,11.8v4.6h-30.8v-4.6H164.8z"/>
			<path id="XMLID_679_" opacity="0.15" fill="#363944" d="M164.8,5.9v4.6h-30.8V5.9H164.8z"/>
			<path id="XMLID_677_" fill="#363944" d="M142.8,29.5v4.6h-8.8v-4.6H142.8z"/>
			<path id="XMLID_675_" fill="#363944" d="M139.6,23.6v4.6h-5.6v-4.6H139.6z"/>
			<path id="XMLID_673_" fill="#363944" d="M154.2,17.7v4.6h-20.2v-4.6H154.2z"/>
			<path id="XMLID_671_" fill="#363944" d="M143.3,11.8v4.6h-9.4v-4.6H143.3z"/>
			<path id="XMLID_669_" fill="#363944" d="M141.2,5.9v4.6h-7.2V5.9H141.2z"/>
		</g>
	</g>
	<g id="XMLID_2_">
		<g id="XMLID_17_">
			<path id="XMLID_127_" d="M4.9,54.1c-0.1,0.1-0.6,0.7-1.9,0.7c-1.3,0-2.3-0.9-2.3-2.3c0-1.4,1-2.3,2.3-2.3c1.2,0,1.6,0.6,1.8,0.8
				l-0.4,0.4C4.1,51,3.7,50.7,3,50.7c-0.9,0-1.6,0.7-1.6,1.8c0,1.1,0.7,1.8,1.7,1.8c0.9,0,1.3-0.4,1.3-0.4v-1H3.1v-0.5h1.8V54.1z"/>
			<path id="XMLID_125_" d="M10.4,54.7H7.8v-4.5h2.6v0.5h-2v1.3h1.9v0.5H8.4v1.6h2.1V54.7z"/>
			<path id="XMLID_123_" d="M15.9,50.8h-1.3v4H14v-4h-1.3v-0.5h3.2V50.8z"/>
			<path id="XMLID_120_" d="M25.4,54.7h-0.7l-0.5-1.2h-1.9l-0.5,1.2h-0.7l1.8-4.5h0.6L25.4,54.7z M24,53l-0.8-2l-0.8,2H24z"/>
			<path id="XMLID_76_" d="M30,50.8h-1.3v4h-0.6v-4h-1.3v-0.5H30V50.8z"/>
			<path id="XMLID_74_" d="M35.2,50.8h-1.3v4h-0.6v-4H32v-0.5h3.2V50.8z"/>
			<path id="XMLID_72_" d="M40.4,54.7h-2.7v-4.5h2.6v0.5h-2v1.3h1.9v0.5h-1.9v1.6h2.1V54.7z"/>
			<path id="XMLID_70_" d="M46.9,54.7h-0.6l-2.6-3.6c0,0,0,0.6,0,1.2v2.4h-0.6v-4.5h0.7l2.5,3.5c0,0,0-0.6,0-1.1v-2.4h0.6V54.7z"/>
			<path id="XMLID_35_" d="M52.6,50.8h-1.3v4h-0.6v-4h-1.3v-0.5h3.2V50.8z"/>
			<path id="XMLID_30_" d="M55.7,54.7h-0.6v-4.5h0.6V54.7z"/>
			<path id="XMLID_27_" d="M60.7,54.8c-1.3,0-2.3-0.9-2.3-2.3c0-1.4,1.1-2.3,2.3-2.3s2.3,0.9,2.3,2.3C63.1,53.9,62,54.8,60.7,54.8z
				 M60.7,50.7c-0.9,0-1.7,0.7-1.7,1.8c0,1.1,0.8,1.8,1.7,1.8c0.9,0,1.7-0.7,1.7-1.8C62.4,51.4,61.7,50.7,60.7,50.7z"/>
			<path id="XMLID_25_" d="M69.6,54.7H69l-2.6-3.6c0,0,0,0.6,0,1.2v2.4h-0.6v-4.5h0.7l2.5,3.5c0,0,0-0.6,0-1.1v-2.4h0.6V54.7z"/>
			<path id="XMLID_24_" d="M73,54.8c-0.3,0-0.4-0.2-0.4-0.4c0-0.3,0.2-0.4,0.4-0.4c0.2,0,0.4,0.2,0.4,0.4
				C73.4,54.6,73.3,54.8,73,54.8z"/>
			<path id="XMLID_22_" d="M83.6,54.1c-0.1,0.1-0.6,0.7-1.9,0.7c-1.3,0-2.3-0.9-2.3-2.3c0-1.4,1-2.3,2.3-2.3c1.2,0,1.6,0.6,1.8,0.8
				l-0.4,0.4c-0.3-0.3-0.7-0.6-1.4-0.6c-0.9,0-1.6,0.7-1.6,1.8c0,1.1,0.7,1.8,1.7,1.8c0.9,0,1.3-0.4,1.3-0.4v-1h-1.2v-0.5h1.8V54.1z
				"/>
			<path id="XMLID_4_" d="M89.2,54.7h-2.7v-4.5h2.6v0.5h-2v1.3H89v0.5h-1.9v1.6h2.1V54.7z"/>
			<path id="XMLID_5_" d="M94.7,50.8h-1.3v4h-0.6v-4h-1.3v-0.5h3.2V50.8z"/>
			<path id="XMLID_78_" d="M103.4,54.1c-0.3,0.3-0.9,0.6-1.7,0.6h-1.4v-4.5h1.4c0.8,0,1.4,0.3,1.7,0.6c0.3,0.3,0.7,0.8,0.7,1.7
				C104.1,53.3,103.8,53.8,103.4,54.1z M103,51.2c-0.2-0.2-0.7-0.4-1.2-0.4H101v3.4h0.7c0.5,0,1-0.2,1.2-0.4
				c0.2-0.2,0.5-0.6,0.5-1.3C103.5,51.8,103.2,51.4,103,51.2z"/>
			<path id="XMLID_81_" d="M110.4,54.7h-0.7l-0.5-1.2h-1.9l-0.5,1.2h-0.7l1.8-4.5h0.6L110.4,54.7z M109.1,53l-0.8-2l-0.8,2H109.1z"
				/>
			<path id="XMLID_84_" d="M115,50.8h-1.3v4h-0.6v-4h-1.3v-0.5h3.2V50.8z"/>
			<path id="XMLID_86_" d="M120.7,54.7H120l-0.5-1.2h-1.9l-0.5,1.2h-0.7l1.8-4.5h0.6L120.7,54.7z M119.3,53l-0.8-2l-0.8,2H119.3z"/>
			<path id="XMLID_89_" d="M123.6,54.8c-0.3,0-0.4-0.2-0.4-0.4c0-0.3,0.2-0.4,0.4-0.4c0.2,0,0.4,0.2,0.4,0.4
				C124.1,54.6,123.9,54.8,123.6,54.8z"/>
			<path id="XMLID_91_" d="M134.2,54.1c-0.1,0.1-0.6,0.7-1.9,0.7c-1.3,0-2.3-0.9-2.3-2.3c0-1.4,1-2.3,2.3-2.3c1.2,0,1.6,0.6,1.8,0.8
				l-0.4,0.4c-0.3-0.3-0.7-0.6-1.4-0.6c-0.9,0-1.6,0.7-1.6,1.8c0,1.1,0.7,1.8,1.7,1.8c0.9,0,1.3-0.4,1.3-0.4v-1h-1.2v-0.5h1.8V54.1z
				"/>
			<path id="XMLID_93_" d="M139.8,54.7h-2.7v-4.5h2.6v0.5h-2v1.3h1.9v0.5h-1.9v1.6h2.1V54.7z"/>
			<path id="XMLID_95_" d="M145.3,50.8H144v4h-0.6v-4h-1.3v-0.5h3.2V50.8z"/>
			<path id="XMLID_97_" d="M151.1,50.2l-1.7,4.5h-0.6l-1.7-4.5h0.7l1.3,3.6l1.3-3.6H151.1z"/>
			<path id="XMLID_99_" d="M155.5,54.8c-1.3,0-2.3-0.9-2.3-2.3c0-1.4,1.1-2.3,2.3-2.3c1.3,0,2.3,0.9,2.3,2.3
				C157.8,53.9,156.8,54.8,155.5,54.8z M155.5,50.7c-0.9,0-1.7,0.7-1.7,1.8c0,1.1,0.8,1.8,1.7,1.8c0.9,0,1.7-0.7,1.7-1.8
				C157.2,51.4,156.4,50.7,155.5,50.7z"/>
			<path id="XMLID_102_" d="M161.1,54.7h-0.6v-4.5h0.6V54.7z"/>
			<path id="XMLID_104_" d="M167.8,54.1c-0.3,0.3-0.8,0.7-1.6,0.7c-1.3,0-2.3-0.9-2.3-2.3s1-2.3,2.3-2.3c0.8,0,1.3,0.4,1.6,0.6
				l-0.3,0.5c-0.2-0.2-0.7-0.5-1.3-0.5c-1,0-1.7,0.7-1.7,1.8c0,1.1,0.7,1.8,1.7,1.8c0.6,0,1-0.2,1.3-0.5L167.8,54.1z"/>
			<path id="XMLID_106_" d="M173.1,54.7h-2.7v-4.5h2.6v0.5h-2v1.3h1.9v0.5H171v1.6h2.1V54.7z"/>
			<path id="XMLID_108_" d="M178.1,54.5c-0.3,0.2-0.7,0.4-1.1,0.4c-0.8,0-1.2-0.5-1.5-0.8l0.4-0.4c0.2,0.3,0.7,0.6,1.1,0.6
				c0.5,0,0.9-0.3,0.9-0.8c0-0.5-0.5-0.7-0.7-0.7c-0.2-0.1-0.5-0.2-0.7-0.3c-0.1,0-0.3-0.1-0.4-0.3c-0.2-0.2-0.3-0.4-0.3-0.8
				s0.2-0.7,0.4-0.9c0.2-0.2,0.6-0.3,1-0.3c0.7,0,1.2,0.4,1.3,0.6l-0.3,0.4c-0.2-0.2-0.5-0.5-1-0.5c-0.4,0-0.8,0.2-0.8,0.6
				c0,0.4,0.3,0.6,0.6,0.7l0.8,0.3c0.1,0,0.4,0.2,0.5,0.4c0.1,0.2,0.3,0.4,0.3,0.8C178.5,53.9,178.4,54.2,178.1,54.5z"/>
			<path id="XMLID_110_" d="M181.7,54.8c-0.3,0-0.4-0.2-0.4-0.4c0-0.3,0.2-0.4,0.4-0.4c0.2,0,0.4,0.2,0.4,0.4
				C182.1,54.6,182,54.8,181.7,54.8z"/>
			<path id="XMLID_112_" d="M188.6,54.1c-0.3,0.3-0.8,0.7-1.6,0.7c-1.3,0-2.3-0.9-2.3-2.3s1-2.3,2.3-2.3c0.8,0,1.3,0.4,1.6,0.6
				l-0.3,0.5c-0.2-0.2-0.7-0.5-1.3-0.5c-1,0-1.7,0.7-1.7,1.8c0,1.1,0.7,1.8,1.7,1.8c0.6,0,1-0.2,1.3-0.5L188.6,54.1z"/>
			<path id="XMLID_114_" d="M193.1,54.8c-1.3,0-2.3-0.9-2.3-2.3c0-1.4,1.1-2.3,2.3-2.3s2.3,0.9,2.3,2.3
				C195.4,53.9,194.4,54.8,193.1,54.8z M193.1,50.7c-0.9,0-1.7,0.7-1.7,1.8c0,1.1,0.8,1.8,1.7,1.8c0.9,0,1.7-0.7,1.7-1.8
				C194.8,51.4,194,50.7,193.1,50.7z"/>
			<path id="XMLID_117_" d="M202.9,54.7h-0.6l-0.3-3.5h0l-1.4,3.6h-0.4l-1.4-3.6h0l-0.3,3.5h-0.6l0.4-4.5h0.8l1.3,3.5h0l1.3-3.5h0.8
				L202.9,54.7z"/>
		</g>
	</g>
</g>
</svg>
